<?xml version="1.0" encoding="UTF-8" standalone="no"?>
<!DOCTYPE svg PUBLIC "-//W3C//DTD SVG 20010904//EN" "http://www.w3.org/TR/2001/REC-SVG-20010904/DTD/svg10.dtd">
<svg version="1.0" xmlns="http://www.w3.org/2000/svg" width="434.000000pt" height="432.000000pt" viewBox="0 0 434.000000 432.000000" preserveAspectRatio="xMidYMid meet">
<metadata>
Created by potrace 1.15, written by Peter Selinger 2001-2017
</metadata>
<g transform="translate(0.000000,432.000000) scale(0.100000,-0.100000)" stroke="none" fill="#ffffff">
<path d="M1986 4269 c-650 -67 -1252 -566 -1456 -1204 -67 -210 -74 -265 -74 -535 0 -214 3 -258 22 -346 48 -220 144 -448 270 -637 l65 -98 -87 -81 c-64 -60 -86 -86 -84 -102 3 -18 31 -31 178 -83 96 -35 227 -82 290 -105 l115 -43 -60 -6 c-33 -4 -95 -7 -137 -8 l-77 -1 -240 -142 -241 -141 0 -354 0 -353 1693 0 1694 0 6 152 c4 83 7 242 7 352 l0 201 -215 138 -215 137 -97 0 c-67 0 -94 3 -87 10 6 6 95 37 197 69 193 60 297 99 297 109 0 4 -41 47 -90 97 l-91 91 87 130 c137 206 245 448 290 651 25 111 25 576 1 708 -49 269 -195 565 -391 794 -251 293 -647 521 -1016 585 -114 20 -427 29 -554 15z m324 -39 c208 -14 278 -26 428 -76 536 -176 937 -577 1116 -1117 58 -175 70 -260 70 -527 0 -226 -1 -239 -28 -345 -57 -223 -150 -429 -274 -611 -85 -124 -95 -127 -178 -53 -92 82 -194 183 -194 192 0 4 25 43 55 86 59 85 141 247 174 348 37 111 54 238 55 413 0 167 -12 250 -37 250 -9 0 -12 -56 -12 -227 0 -256 -13 -330 -83 -506 -40 -101 -24 -103 -131 17 l-61 68 0 154 c0 118 -3 156 -13 160 -7 2 -39 -7 -70 -21 -32 -14 -62 -25 -67 -25 -19 0 -208 384 -236 480 -6 23 -6 24 11 10 10 -8 28 -32 41 -52 37 -58 64 -47 64 26 0 44 9 50 36 25 33 -31 54 -12 54 51 0 44 2 49 30 59 24 8 30 16 30 40 0 25 -8 36 -42 58 l-43 27 38 9 c66 16 33 57 -46 57 -54 0 -59 11 -26 60 39 57 26 72 -36 42 l-45 -22 0 42 0 41 -36 -39 c-22 -25 -33 -32 -29 -19 13 42 17 75 8 75 -11 0 -48 -25 -91 -62 l-32 -28 -44 22 -44 21 -36 -22 c-20 -13 -36 -26 -36 -30 0 -3 14 -12 30 -18 36 -14 39 -29 6 -37 -31 -8 -86 -54 -86 -72 0 -10 13 -14 47 -14 l46 0 -56 -59 c-32 -33 -57 -66 -57 -75 0 -24 19 -29 45 -12 30 19 30 19 9 -45 -18 -55 -13 -70 16 -51 28 17 28 17 40 -29 12 -44 37 -62 52 -36 14 26 25 21 49 -23 13 -22 28 -40 34 -40 6 0 16 21 22 48 7 38 11 43 17 27 30 -76 113 -270 137 -317 l29 -57 -33 -25 c-38 -29 -85 -48 -98 -40 -5 3 -9 21 -9 40 0 19 -4 34 -9 34 -4 0 -43 -16 -85 -36 -43 -19 -85 -34 -94 -32 -11 2 -19 16 -22 38 -4 30 -9 35 -33 35 -16 1 -33 7 -37 15 -4 8 -24 92 -44 185 -115 552 -144 693 -149 721 l-6 31 297 7 c164 4 342 4 397 0 l99 -7 48 -45 c96 -89 248 -346 248 -418 0 -18 5 -36 11 -39 7 -5 8 -25 4 -56 -7 -49 0 -60 23 -37 10 10 14 10 20 1 15 -24 80 -20 109 6 14 13 47 23 97 30 97 14 149 34 144 58 -4 21 -21 20 -93 0 -27 -8 -57 -12 -68 -9 -34 9 -10 27 49 38 33 6 66 14 72 18 17 10 15 48 -3 72 -8 10 -15 27 -15 36 0 29 -40 48 -100 48 -66 0 -123 -15 -140 -36 -19 -22 0 -37 31 -26 13 5 52 13 87 17 51 6 62 4 62 -8 0 -16 -16 -21 -91 -32 -25 -4 -52 -11 -60 -15 -27 -17 4 -25 94 -23 118 3 88 -12 -57 -28 -117 -13 -136 -10 -136 23 0 55 -101 229 -208 358 -202 244 -473 402 -776 455 -114 19 -362 20 -483 0 -398 -65 -754 -326 -941 -692 -98 -192 -142 -382 -142 -615 0 -253 63 -469 211 -719 l32 -54 -84 -79 c-46 -43 -110 -100 -142 -127 l-58 -49 -23 27 c-116 143 -240 419 -298 663 -28 122 -36 440 -14 605 89 673 632 1253 1326 1415 175 40 246 45 470 30z m175 -455 c72 -15 285 -90 285 -101 0 -2 -105 -4 -233 -4 l-233 0 -10 43 -9 42 -85 0 -85 0 -9 -42 -10 -43 -218 0 c-120 0 -218 2 -218 4 0 20 235 96 356 116 89 14 375 5 469 -15z m381 -161 c18 -2 38 -12 45 -20 12 -14 -16 -15 -293 -12 -169 1 -310 6 -314 11 -4 4 -4 10 0 15 16 15 470 21 562 6z m-780 -6 c4 -5 4 -11 0 -15 -13 -13 -576 -16 -576 -3 0 6 10 15 23 20 26 11 542 9 553 -2z m-8 -84 c12 -2 22 -8 22 -13 0 -9 -319 -21 -557 -21 -144 0 -173 6 -140 27 24 16 601 22 675 7z m909 0 c24 -3 45 -9 48 -15 4 -5 -133 -9 -359 -9 -225 0 -367 4 -371 10 -3 5 4 12 17 15 51 12 566 11 665 -1z m-1045 -81 c70 -3 132 -9 137 -13 7 -4 -23 -143 -90 -413 l-101 -407 -199 0 c-109 0 -199 2 -199 4 0 3 -7 37 -15 77 -23 106 -75 477 -75 529 l0 45 73 1 c76 1 274 45 315 71 17 10 22 22 20 41 l-3 27 -108 3 c-106 3 -111 2 -205 -36 -54 -22 -124 -49 -157 -61 -33 -12 -71 -31 -85 -43 l-25 -20 25 -20 c14 -11 38 -30 53 -42 l28 -22 -26 -253 c-14 -139 -30 -261 -35 -271 -6 -11 -29 -32 -53 -49 -68 -47 -89 -75 -92 -121 -1 -23 -11 -53 -22 -68 -11 -15 -29 -41 -41 -57 -21 -29 -22 -33 -10 -125 l13 -95 85 -8 c47 -5 508 -6 1025 -3 l940 6 93 -124 93 -124 -20 -39 c-44 -83 -66 -97 -166 -108 -38 -4 -130 -18 -204 -31 -74 -13 -137 -21 -140 -18 -3 3 0 14 7 24 7 11 12 23 12 26 0 3 -36 3 -80 -1 -44 -4 -80 -5 -80 -2 0 3 9 26 20 52 36 85 18 108 -52 65 -54 -33 -60 -28 -56 43 3 58 2 62 -20 65 -13 2 -41 -8 -64 -23 -22 -15 -44 -23 -49 -18 -4 4 -9 32 -11 62 -2 30 -8 56 -15 58 -6 2 -30 -25 -53 -61 -24 -37 -44 -66 -45 -66 -1 0 -17 38 -35 85 -18 47 -36 82 -40 78 -5 -4 -18 -36 -30 -71 -13 -34 -26 -65 -30 -67 -4 -2 -28 23 -54 56 -56 72 -66 69 -77 -21 -4 -34 -10 -64 -13 -67 -3 -4 -23 7 -44 24 -43 34 -82 57 -88 50 -2 -2 1 -36 8 -75 6 -39 9 -74 6 -77 -3 -3 -31 6 -63 20 -32 14 -61 25 -66 25 -15 0 -10 -35 10 -81 11 -24 17 -47 14 -52 -3 -5 -38 -6 -79 -2 -77 7 -80 6 -64 -24 8 -16 -9 -14 -143 19 -84 21 -193 46 -244 55 l-92 17 -45 77 c-121 206 -186 435 -186 656 0 311 129 639 339 858 l64 67 241 0 c133 0 298 -3 368 -7z m-553 -498 c19 -106 51 -316 51 -330 0 -3 -24 -5 -54 -5 -38 0 -56 4 -59 14 -6 16 7 219 23 351 6 44 10 84 10 89 0 30 11 -14 29 -119z m999 -147 c11 -15 47 -167 40 -173 -6 -6 -157 68 -183 89 -20 16 -20 17 4 34 35 25 104 62 117 62 6 0 16 -6 22 -12z m-136 -144 c42 -20 75 -41 72 -45 -7 -12 -291 -11 -298 0 -8 12 102 80 129 81 10 0 54 -16 97 -36z m-166 -107 c4 -4 0 -15 -9 -25 -16 -15 -56 -17 -455 -20 l-437 -3 22 22 c12 13 41 26 65 30 57 9 804 6 814 -4z m200 -123 c7 -27 20 -67 28 -89 8 -22 15 -71 16 -109 l0 -69 -37 7 c-21 3 -89 6 -151 6 l-114 0 4 63 c3 34 14 85 26 112 11 28 28 71 36 96 9 25 32 63 52 84 l35 39 46 -46 c32 -32 49 -60 59 -94z m148 120 c20 -20 30 -57 22 -87 -6 -25 -71 -67 -105 -67 -18 0 -21 6 -21 41 0 44 -11 72 -43 107 l-20 22 76 0 c55 0 80 -4 91 -16z m-424 -113 c33 -8 34 -8 10 -14 -40 -9 -520 -15 -680 -8 -132 5 -145 8 -148 25 -4 19 5 19 389 12 217 -4 410 -11 429 -15z m524 -27 c3 -9 6 -67 6 -130 l0 -114 -85 0 -85 0 0 85 0 85 68 45 c74 49 87 53 96 29z m216 -131 c0 -101 -2 -114 -16 -109 -9 3 -45 6 -80 6 l-64 0 0 88 0 89 67 31 c50 23 70 28 80 20 9 -7 13 -43 13 -125z m210 1 l0 -114 -85 0 -85 0 0 88 0 88 73 36 c51 25 76 33 85 26 8 -7 12 -45 12 -124z m-961 80 c20 -6 8 -14 -36 -25 -44 -11 -827 -14 -844 -3 -30 18 38 29 216 34 203 5 641 1 664 -6z m-9 -135 l0 -61 -31 6 c-17 3 -218 6 -446 6 l-414 0 3 48 3 47 190 5 c105 3 304 7 443 8 l252 2 0 -61z m284 -419 c8 0 24 16 36 35 12 19 25 35 30 35 12 0 20 -28 20 -72 l0 -40 49 36 c27 20 51 36 55 36 3 0 6 -25 6 -55 0 -30 2 -55 4 -55 2 0 25 9 51 21 25 11 49 18 52 16 2 -3 -2 -18 -10 -34 -8 -15 -18 -39 -22 -52 -7 -24 -7 -24 54 -18 53 4 60 3 50 -9 -6 -8 -113 -66 -237 -129 l-225 -114 -131 78 c-72 43 -162 96 -200 117 -89 50 -94 64 -26 64 l53 0 -6 33 c-3 17 -9 40 -13 51 -6 17 -5 17 22 3 16 -8 40 -18 53 -22 23 -7 24 -6 19 49 -3 31 -2 59 2 61 4 2 20 -9 35 -25 46 -48 75 -37 75 30 0 45 17 45 45 0 14 -22 32 -40 41 -40 9 0 24 21 37 52 l21 52 23 -52 c12 -29 29 -52 37 -52z m-903 -95 c253 -57 475 -147 698 -286 l103 -64 -7 -255 c-4 -140 -10 -259 -15 -263 -13 -14 -40 -1 -151 69 -130 82 -435 233 -554 274 -112 39 -331 95 -450 116 -136 23 -131 19 -99 62 91 123 197 254 248 309 69 74 66 74 227 38z m1822 -52 c66 -63 284 -370 271 -382 -5 -4 -84 -20 -175 -34 -361 -58 -672 -172 -937 -342 -57 -37 -109 -64 -116 -62 -22 9 -26 59 -26 292 l0 223 70 47 c157 104 456 222 670 264 58 11 114 22 125 25 40 9 88 -4 118 -31z m-2250 -155 c-5 -7 -35 -44 -65 -83 -69 -87 -83 -114 -70 -127 6 -6 64 -19 129 -29 140 -21 347 -73 493 -124 203 -70 638 -302 588 -313 -10 -2 -100 25 -201 60 -890 307 -1107 385 -1107 395 0 6 53 61 117 122 108 103 140 130 116 99z m2637 -194 l84 -88 -52 -23 c-49 -21 -1046 -339 -1160 -370 -58 -15 -107 -14 -107 2 0 16 91 71 220 135 292 142 460 191 913 261 47 7 72 15 72 24 0 7 -24 46 -53 86 -29 41 -63 90 -77 109 l-24 35 49 -41 c28 -23 88 -81 135 -130z m-1929 -413 c156 -55 298 -105 314 -111 l30 -13 -29 -8 c-40 -11 -1083 -24 -1239 -14 -151 8 -161 -8 88 142 l170 102 191 1 191 0 284 -99z m1784 55 c50 -23 109 -58 240 -145 l70 -46 -60 -6 c-80 -9 -1054 -11 -1178 -2 -66 4 -94 9 -83 15 21 12 402 133 495 158 70 19 216 37 346 43 33 2 74 4 90 5 17 1 53 -9 80 -22z m83 -253 l302 -6 0 -311 0 -311 -1647 3 c-906 2 -1649 5 -1651 7 -2 2 -6 135 -9 297 -5 251 -4 295 9 305 10 9 70 13 189 16 375 6 2523 7 2807 0z"/>
<path d="M2473 4090 c-51 -21 -85 -155 -38 -155 14 0 21 9 26 32 10 50 37 85 62 81 28 -4 34 -41 12 -74 -35 -54 -8 -81 82 -83 40 -1 42 1 53 37 16 58 23 110 17 126 -11 28 -35 5 -56 -55 -12 -32 -26 -59 -32 -59 -11 0 -11 6 1 52 13 46 2 71 -40 93 -32 17 -54 18 -87 5z"/>
<path d="M1732 4052 c-62 -23 -92 -47 -92 -77 0 -43 88 -140 108 -120 4 4 -5 29 -21 56 -29 52 -36 93 -14 87 6 -2 29 -30 50 -61 21 -31 45 -57 53 -57 20 0 17 39 -6 83 -11 20 -20 44 -20 52 0 40 55 -6 72 -60 10 -29 19 -40 33 -40 40 0 28 80 -19 124 -32 30 -82 35 -144 13z"/>
<path d="M2837 3925 c-80 -61 -73 -106 23 -155 84 -42 113 -40 166 14 30 29 44 52 44 70 0 39 -23 32 -64 -19 -30 -36 -44 -45 -68 -45 l-31 0 47 50 c79 85 54 110 -36 35 -30 -25 -60 -45 -67 -45 -24 0 -9 31 34 67 25 20 45 43 45 50 0 24 -47 13 -93 -22z"/>
<path d="M1257 3902 c-10 -10 -17 -26 -17 -36 0 -21 28 -32 43 -17 20 20 44 12 93 -32 96 -85 134 -106 134 -74 0 16 -90 104 -149 146 -50 35 -81 39 -104 13z"/>
<path d="M3194 3807 c-26 -23 -26 -24 -10 -49 l17 -26 -58 -38 c-37 -25 -59 -47 -61 -61 -2 -14 2 -23 10 -23 23 0 183 116 198 144 14 26 14 28 -13 52 -35 30 -49 30 -83 1z"/>
<path d="M1072 3634 c2 -11 22 -22 53 -31 28 -8 59 -23 69 -33 18 -18 18 -20 2 -26 -10 -4 -37 4 -67 21 -37 20 -59 26 -81 21 -41 -8 -82 -39 -108 -81 -20 -33 -21 -37 -6 -60 19 -29 139 -90 161 -81 27 10 13 39 -24 48 -48 13 -81 37 -81 60 0 23 17 19 92 -18 102 -51 122 -14 23 41 -36 20 -65 41 -65 46 0 13 5 12 70 -21 68 -34 80 -36 120 -15 33 17 45 46 31 74 -26 48 -198 98 -189 55z"/>
<path d="M3270 3599 c-56 -25 -80 -47 -80 -71 0 -25 8 -23 64 13 27 16 50 28 53 26 2 -3 -11 -14 -30 -26 -41 -25 -51 -45 -37 -71 14 -26 63 -59 98 -66 47 -9 142 48 142 86 0 28 -55 96 -93 113 -45 22 -62 21 -117 -4z"/>
<path d="M3473 3348 c-13 -6 -23 -17 -23 -25 0 -8 -12 -13 -35 -13 -42 0 -46 -18 -15 -67 33 -55 94 -54 182 3 77 49 56 115 -36 113 -28 0 -61 -5 -73 -11z"/>
<path d="M802 3303 c-11 -10 -33 -42 -48 -70 l-29 -53 22 -21 c14 -15 37 -23 69 -25 29 -2 51 -10 57 -19 4 -8 21 -15 37 -15 32 0 54 24 66 73 3 16 17 33 30 39 50 23 19 69 -62 94 -64 19 -117 18 -142 -3z"/>
<path d="M694 3024 c-12 -3 -28 -13 -36 -22 -22 -25 -51 -110 -44 -128 10 -26 87 -54 149 -54 58 0 75 14 35 29 -20 7 -19 8 9 14 34 7 63 31 63 53 0 8 -9 23 -20 34 l-20 20 30 0 c38 0 40 22 3 40 -30 13 -133 22 -169 14z"/>
<path d="M571 2711 c-26 -26 -26 -46 -2 -70 40 -40 170 -38 218 3 24 21 26 26 15 50 -21 46 -90 31 -107 -24 -12 -36 -35 -24 -32 18 2 36 1 37 -35 40 -27 2 -43 -3 -57 -17z"/>
<path d="M1410 560 c-16 -31 -9 -145 10 -145 8 0 17 11 20 25 4 16 13 25 25 25 14 0 21 -8 23 -25 5 -34 20 -49 32 -30 15 24 12 134 -4 156 -14 18 -15 18 -26 -13 -15 -41 -35 -42 -49 -3 -12 35 -17 37 -31 10z"/>
<path d="M2658 573 c-39 -11 -31 -76 13 -99 40 -20 36 -34 -6 -27 -28 5 -35 2 -35 -11 0 -17 37 -36 71 -36 23 0 59 34 59 55 0 8 -8 22 -17 30 -10 7 -29 23 -43 35 l-25 21 33 -6 c28 -6 32 -4 32 14 0 12 -6 21 -12 21 -7 0 -22 2 -33 4 -11 2 -27 2 -37 -1z"/>
<path d="M1086 548 c-23 -33 -21 -103 4 -128 30 -30 76 -26 109 9 l26 28 27 -28 c31 -35 78 -39 108 -9 36 36 16 63 -26 35 -32 -21 -56 -4 -52 34 3 23 8 26 43 29 22 2 45 8 50 13 17 18 -25 39 -77 39 -42 0 -48 -3 -54 -25 l-6 -25 -30 25 c-39 33 -100 35 -122 3z"/>
<path d="M1637 563 c-4 -3 -7 -39 -7 -80 0 -58 3 -73 15 -73 8 0 15 8 15 18 0 32 11 32 37 1 43 -50 53 -40 53 56 0 68 -3 85 -15 85 -8 0 -17 -14 -21 -37 l-7 -37 -21 37 c-20 35 -35 45 -49 30z"/>
<path d="M1994 557 c-9 -25 1 -150 12 -154 7 -2 14 14 18 38 l7 42 24 -33 c13 -18 26 -38 28 -44 7 -20 35 13 41 49 9 45 -3 105 -19 105 -8 0 -15 -14 -17 -32 l-3 -33 -25 37 c-25 38 -56 49 -66 25z"/>
<path d="M2157 563 c-11 -10 -8 -136 3 -153 16 -24 30 6 30 63 0 26 4 47 9 47 5 0 17 -22 26 -49 21 -65 38 -79 59 -49 9 12 16 25 16 29 0 4 8 24 17 45 l17 39 10 -65 11 -65 40 -3 c44 -2 71 10 61 27 -4 6 -18 11 -31 11 -34 0 -41 18 -11 30 32 12 34 38 4 49 -20 7 -19 8 11 14 20 4 31 12 29 19 -3 9 -29 13 -84 13 -78 0 -79 0 -93 -30 l-15 -30 -13 33 c-12 28 -18 32 -51 32 -21 0 -42 -3 -45 -7z"/>
<path d="M2486 555 c-8 -21 -8 -108 0 -129 9 -24 32 -19 36 7 4 31 40 30 48 -2 3 -14 11 -26 17 -28 19 -7 27 44 17 106 l-9 56 -51 3 c-40 2 -53 -1 -58 -13z"/>
<path d="M2830 564 c0 -3 9 -17 20 -31 13 -16 20 -41 20 -67 0 -43 14 -76 26 -63 4 3 11 30 15 58 10 60 19 73 47 65 21 -7 36 -38 47 -93 9 -45 32 -42 41 5 4 20 13 49 20 64 18 35 18 68 -1 68 -8 0 -19 -9 -26 -21 l-11 -21 -14 21 c-13 19 -25 21 -100 21 -46 0 -84 -3 -84 -6z"/>
<path d="M3176 554 c-20 -20 -21 -103 -2 -129 21 -29 92 -27 117 4 23 28 25 88 3 119 -19 27 -93 31 -118 6z"/>
<path d="M3263 330 c-52 -21 -69 -114 -28 -155 44 -45 124 -25 125 31 1 17 3 16 20 -6 11 -14 25 -31 30 -37 14 -17 71 -17 94 0 27 20 19 81 -11 85 -20 3 -23 -1 -23 -28 0 -37 -18 -36 -40 2 -20 36 0 58 51 58 43 0 48 9 21 33 -31 28 -71 21 -108 -19 -20 -21 -34 -29 -34 -21 0 20 -31 54 -55 60 -11 3 -30 2 -42 -3z"/>
<path d="M665 306 c-21 -32 -6 -62 41 -82 19 -8 34 -19 34 -24 0 -13 -37 -13 -45 0 -10 17 -35 11 -35 -8 0 -27 20 -42 56 -42 68 0 86 68 27 105 -40 25 -42 39 -4 30 17 -4 32 -2 36 5 12 20 -16 40 -56 40 -30 0 -42 -6 -54 -24z"/>
<path d="M816 308 c-9 -13 -16 -43 -16 -70 0 -59 24 -88 73 -88 37 0 57 15 57 42 0 20 -34 25 -45 7 -9 -14 -45 19 -45 41 0 9 9 25 19 34 16 14 23 15 41 6 29 -16 46 0 31 29 -17 31 -94 30 -115 -1z"/>
<path d="M1166 314 c-9 -24 -7 -127 3 -143 12 -19 31 -4 31 25 0 32 7 30 45 -13 44 -51 55 -39 55 58 0 62 -3 79 -14 79 -8 0 -17 -14 -21 -31 l-7 -31 -33 36 c-36 39 -50 44 -59 20z"/>
<path d="M1484 317 c-3 -8 -4 -45 -2 -82 3 -78 15 -92 71 -81 41 8 51 33 15 38 -34 5 -32 24 3 39 l32 13 -34 11 c-41 14 -41 27 1 39 45 13 31 31 -28 34 -38 2 -54 -1 -58 -11z"/>
<path d="M1716 308 c-18 -29 -46 -113 -46 -138 0 -26 14 -25 51 2 28 21 31 22 40 5 11 -18 34 -23 43 -8 7 11 -21 109 -40 139 -8 12 -19 22 -24 22 -5 0 -16 -10 -24 -22z"/>
<path d="M1994 317 c-3 -8 -4 -47 -2 -88 l3 -74 36 -3 c30 -3 41 2 63 28 53 63 21 150 -55 150 -24 0 -42 -5 -45 -13z"/>
<path d="M2193 314 c-4 -10 0 -20 9 -25 10 -6 19 -31 23 -69 11 -92 28 -75 51 48 2 12 10 22 18 22 14 0 26 -42 26 -89 0 -39 18 -51 73 -51 40 0 48 3 45 17 -2 9 -14 20 -27 23 -32 7 -38 28 -9 32 30 4 30 30 0 38 -33 7 -29 23 7 34 71 20 23 36 -112 36 -81 0 -99 -3 -104 -16z"/>
<path d="M2786 314 c-9 -24 -7 -127 3 -143 13 -20 31 -4 31 27 l0 27 26 -32 c28 -36 48 -42 58 -17 9 24 7 117 -3 133 -13 21 -31 4 -31 -30 0 -37 -15 -30 -35 17 -15 36 -39 45 -49 18z"/>
<path d="M2950 303 c-17 -22 -21 -37 -17 -71 6 -58 31 -84 76 -80 46 4 86 57 77 103 -15 73 -94 101 -136 48z"/>
<path d="M1826 298 c-9 -35 -7 -111 4 -128 11 -17 26 -5 32 24 5 30 26 30 34 1 3 -14 14 -30 24 -35 30 -16 41 11 38 87 -3 60 -5 68 -23 68 -15 0 -21 -8 -23 -29 l-4 -29 -19 32 c-22 37 -54 41 -63 9z"/>
<path d="M2627 313 c-10 -9 -9 -141 1 -147 10 -6 24 4 38 28 16 30 31 30 38 1 8 -30 34 -44 47 -24 5 8 9 39 9 69 0 30 -4 61 -9 69 -12 18 -41 7 -48 -19 -7 -26 -11 -25 -35 5 -20 26 -30 30 -41 18z"/>
</g>
<script xmlns=""/></svg>